<svg width="2936" height="531" viewBox="0 0 2936 531" fill="none" xmlns="http://www.w3.org/2000/svg">
<g clip-path="url(#clip0_501_2898)">
<path d="M515.206 185.977C515.206 288.682 431.106 371.954 327.347 371.954H139.488V290.352H327.347C355.027 290.352 381.573 279.356 401.145 259.782C420.718 240.208 431.713 213.659 431.713 185.977C431.713 158.295 420.718 131.747 401.145 112.173C381.573 92.5989 355.027 81.6023 327.347 81.6023H139.488V0H327.347C431.106 0 515.206 83.2725 515.206 185.977Z" fill="url(#paint0_linear_501_2898)"/>
<path d="M-1.0252e-05 334.977C-1.0252e-05 232.272 84.1001 149 187.859 149H375.718V230.602H187.859C160.179 230.602 133.633 241.599 114.061 261.173C94.4885 280.747 83.4929 307.295 83.4929 334.977C83.4929 362.659 94.4885 389.207 114.061 408.782C133.633 428.356 160.179 439.352 187.859 439.352H375.718V520.955H187.859C84.1001 520.955 -1.0252e-05 437.682 -1.0252e-05 334.977Z" fill="url(#paint1_linear_501_2898)"/>
<path d="M929.171 128.25V420.75H858.2V300.333H747.801V420.75H676.83V128.25H747.801V242.833H858.2V128.25H929.171ZM1228.4 189L1080.36 530.366H1002.54L1056.68 412.568L960.668 189H1041.45L1096.01 333.759L1150.15 189H1228.4ZM1331.65 220.733C1338.93 209.658 1348.91 200.627 1360.66 194.495C1374.02 187.585 1388.91 184.148 1403.96 184.5C1422.5 184.279 1440.72 189.334 1456.51 199.076C1472.54 209.169 1485.37 223.613 1493.5 240.724C1502.75 258.77 1507.37 279.732 1507.37 303.609C1507.37 327.487 1502.75 348.588 1493.5 366.912C1485.3 384.088 1472.49 398.65 1456.51 408.975C1440.72 418.718 1422.5 423.773 1403.96 423.552C1388.92 423.837 1374.05 420.404 1360.66 413.556C1349 407.491 1339.03 398.617 1331.65 387.736V531H1259.77V187.832H1331.65V220.733ZM1431.66 303.973C1431.66 286.761 1426.82 273.314 1417.14 263.633C1412.68 258.798 1407.25 254.966 1401.2 252.393C1395.15 249.819 1388.62 248.563 1382.05 248.707C1375.48 248.615 1368.97 249.895 1362.92 252.465C1356.88 255.036 1351.44 258.839 1346.95 263.633C1337.54 273.583 1332.84 287.164 1332.84 304.376C1332.84 321.588 1337.54 335.169 1346.95 345.119C1351.5 349.839 1356.95 353.594 1362.98 356.158C1369.01 358.723 1375.49 360.044 1382.05 360.044C1388.6 360.044 1395.08 358.723 1401.11 356.158C1407.14 353.594 1412.59 349.839 1417.14 345.119C1426.82 334.899 1431.66 321.184 1431.66 303.973ZM1772.85 300.611C1772.83 308.423 1772.41 316.23 1771.59 324H1609.7C1610.82 338.503 1615.42 347.188 1623.51 354.997C1631.87 362.527 1642.8 366.569 1654.05 366.292C1671.89 366.292 1684.3 358.762 1691.28 343.701H1767.41C1763.39 359.11 1755.96 373.422 1745.69 385.585C1735.41 397.748 1722.53 407.453 1708.01 413.986C1691.81 421.137 1674.26 424.705 1656.56 424.445C1635.28 424.833 1614.26 419.794 1595.48 409.803C1577.79 400.195 1563.26 385.663 1553.65 367.967C1543.61 349.838 1538.59 328.641 1538.59 304.376C1538.59 280.111 1543.47 258.914 1553.23 240.785C1562.84 223.089 1577.37 208.557 1595.06 198.949C1612.91 189.187 1633.41 184.306 1656.56 184.306C1677.51 183.915 1698.23 188.807 1716.8 198.531C1734.12 207.774 1748.37 221.879 1757.79 239.112C1767.83 256.683 1772.85 277.183 1772.85 300.611ZM1698.38 281.25C1698.38 269.417 1694.35 260.005 1686.28 253.012C1677.8 246.29 1667.32 242.598 1656.5 242.525C1645.68 242.452 1635.15 246.002 1626.58 252.609C1618.78 259.332 1613.94 268.879 1612.06 281.25H1698.38ZM1888.74 228.219C1896.96 215.743 1908.03 205.404 1921.03 198.06C1934.1 190.479 1948.98 186.571 1964.08 186.75V262.568H1943.85C1925.48 262.568 1911.7 266.477 1902.52 274.297C1893.34 281.836 1888.74 295.241 1888.74 314.509V423H1815.13V189.263H1888.74L1888.74 228.219ZM2121.57 249.575H2083.2V423H2011.88V249.575H1986.03V190.378H2011.88V183.708C2011.88 155.082 2020.08 133.403 2036.48 118.673C2052.89 103.665 2076.94 96.1614 2108.64 96.1614C2113.92 96.1614 2117.8 96.3004 2120.31 96.5783V157.027C2106.68 156.194 2097.09 158.139 2091.54 162.864C2085.98 167.589 2083.2 176.066 2083.2 188.294V190.378H2121.57V249.575ZM2150.09 305.789C2150.09 281.846 2154.55 260.826 2163.45 242.729C2171.74 225.641 2184.6 211.185 2200.61 200.968C2216.26 191.21 2234.37 186.138 2252.81 186.351C2267.76 186.001 2282.56 189.45 2295.83 196.374C2307.62 202.388 2317.58 211.478 2324.64 222.684V189.692H2396.05V422.722H2324.64V389.73C2317.34 400.891 2307.27 409.958 2295.41 416.04C2282.15 422.962 2267.35 426.411 2252.4 426.063C2234.1 426.239 2216.12 421.167 2200.61 411.446C2184.65 400.996 2171.81 386.421 2163.45 369.267C2154.55 350.892 2150.09 329.733 2150.09 305.789V305.789ZM2324.64 306.207C2324.64 288.388 2319.62 274.329 2309.6 264.028C2305.05 259.051 2299.5 255.098 2293.31 252.434C2287.12 249.77 2280.43 248.455 2273.69 248.576C2266.89 248.481 2260.15 249.806 2253.89 252.467C2247.64 255.127 2242.01 259.065 2237.37 264.028C2227.62 274.05 2222.75 287.971 2222.75 305.789C2222.75 323.608 2227.62 337.807 2237.37 348.386C2242.01 353.349 2247.64 357.286 2253.89 359.947C2260.15 362.608 2266.89 363.933 2273.69 363.838C2280.43 363.959 2287.12 362.644 2293.31 359.98C2299.5 357.315 2305.05 353.363 2309.6 348.386C2319.62 338.085 2324.63 324.025 2324.64 306.207H2324.64ZM2440.26 304.376C2440.26 280.004 2445.17 258.714 2454.97 240.505C2464.55 222.815 2478.98 208.235 2496.58 198.485C2515.44 188.45 2536.55 183.388 2557.91 183.778C2587.32 183.778 2611.83 191.482 2631.44 206.889C2651.34 222.297 2664.37 244.007 2670.52 272.02H2594.05C2587.61 254.092 2575.15 245.128 2556.65 245.128C2550.53 244.951 2544.46 246.275 2538.97 248.985C2533.47 251.695 2528.73 255.709 2525.14 260.675C2517.29 270.76 2513.37 285.327 2513.38 304.376C2513.38 323.425 2517.3 338.132 2525.14 348.497C2528.79 353.363 2533.57 357.278 2539.05 359.911C2544.54 362.544 2550.57 363.818 2556.65 363.624C2575.14 363.624 2587.6 354.66 2594.05 336.731H2670.52C2664.35 364.184 2651.32 385.754 2631.44 401.441C2611.55 417.129 2587.04 424.972 2557.91 424.973C2536.55 425.363 2515.44 420.302 2496.58 410.266C2478.98 400.516 2464.55 385.936 2454.97 368.246C2445.17 350.038 2440.26 328.747 2440.26 304.376V304.376ZM2936 300.6C2935.98 307.609 2935.56 314.612 2934.75 321.573H2772.42C2773.54 336.115 2778.16 347.301 2786.26 355.131C2794.64 362.682 2805.6 366.734 2816.89 366.456C2834.78 366.456 2847.23 358.906 2854.21 343.805H2930.55C2926.52 359.255 2919.07 373.605 2908.77 385.8C2898.46 397.994 2885.55 407.725 2870.99 414.275C2854.75 421.444 2837.15 425.022 2819.4 424.762C2798.08 425.152 2777 420.099 2758.16 410.08C2740.42 400.449 2725.85 385.878 2716.22 368.134C2706.16 349.957 2701.12 328.704 2701.12 304.375C2701.12 280.046 2706.01 258.793 2715.8 240.616C2725.43 222.871 2740 208.301 2757.74 198.669C2775.64 188.881 2796.2 183.988 2819.4 183.988C2840.41 183.596 2861.18 188.501 2879.8 198.249C2897.17 207.52 2911.45 221.661 2920.9 238.938C2930.96 256.556 2936 277.11 2936 300.6ZM2861.76 282.971C2861.76 270.906 2857.64 261.31 2849.42 254.18C2840.78 247.327 2830.09 243.563 2819.06 243.488C2808.03 243.413 2797.29 247.033 2788.56 253.769C2780.61 260.624 2775.67 270.358 2773.75 282.971H2861.76Z" fill="white"/>
</g>
<defs>
<linearGradient id="paint0_linear_501_2898" x1="139.488" y1="185.977" x2="515.206" y2="185.977" gradientUnits="userSpaceOnUse">
<stop stop-color="#2E7CBB" stop-opacity="0"/>
<stop offset="0.073" stop-color="#2A86BB" stop-opacity="0.112"/>
<stop offset="0.3082" stop-color="#1EA6BC" stop-opacity="0.4486"/>
<stop offset="0.4795" stop-color="#16BABC" stop-opacity="0.6589"/>
<stop offset="0.5678" stop-color="#13C1BC" stop-opacity="0.7392"/>
<stop offset="0.6648" stop-color="#10C9BC" stop-opacity="0.8264"/>
<stop offset="0.7958" stop-color="#0DD2BC" stop-opacity="0.9215"/>
<stop offset="0.9118" stop-color="#0BD7BC" stop-opacity="0.9795"/>
<stop offset="1" stop-color="#0AD9BC"/>
</linearGradient>
<linearGradient id="paint1_linear_501_2898" x1="375.718" y1="334.977" x2="0" y2="334.977" gradientUnits="userSpaceOnUse">
<stop stop-color="#2E7CBB" stop-opacity="0"/>
<stop offset="0.073" stop-color="#2A86BB" stop-opacity="0.112"/>
<stop offset="0.3082" stop-color="#1EA6BC" stop-opacity="0.4486"/>
<stop offset="0.4795" stop-color="#16BABC" stop-opacity="0.6589"/>
<stop offset="0.5678" stop-color="#13C1BC" stop-opacity="0.7392"/>
<stop offset="0.6648" stop-color="#10C9BC" stop-opacity="0.8264"/>
<stop offset="0.7958" stop-color="#0DD2BC" stop-opacity="0.9215"/>
<stop offset="0.9118" stop-color="#0BD7BC" stop-opacity="0.9795"/>
<stop offset="1" stop-color="#0AD9BC"/>
</linearGradient>
<clipPath id="clip0_501_2898">
<rect width="2936" height="531" fill="white"/>
</clipPath>
</defs>
</svg>
